<svg width="24" height="24" viewBox="0 0 24 24" fill="none" xmlns="http://www.w3.org/2000/svg">
<path fill-rule="evenodd" clip-rule="evenodd" d="M12.707 2.293C12.5195 2.10553 12.2652 2.00021 12 2.00021C11.7348 2.00021 11.4805 2.10553 11.293 2.293L4.29299 9.293L2.29299 11.293C2.19748 11.3852 2.1213 11.4956 2.06889 11.6176C2.01648 11.7396 1.98889 11.8708 1.98774 12.0036C1.98659 12.1364 2.01189 12.2681 2.06217 12.391C2.11245 12.5139 2.1867 12.6255 2.28059 12.7194C2.37449 12.8133 2.48614 12.8875 2.60904 12.9378C2.73193 12.9881 2.86361 13.0134 2.99639 13.0123C3.12917 13.0111 3.26039 12.9835 3.38239 12.9311C3.5044 12.8787 3.61474 12.8025 3.70699 12.707L3.99999 12.414V19C3.99999 19.7956 4.31606 20.5587 4.87867 21.1213C5.44128 21.6839 6.20434 22 6.99999 22H17C17.7956 22 18.5587 21.6839 19.1213 21.1213C19.6839 20.5587 20 19.7956 20 19V12.414L20.293 12.707C20.4816 12.8892 20.7342 12.99 20.9964 12.9877C21.2586 12.9854 21.5094 12.8802 21.6948 12.6948C21.8802 12.5094 21.9854 12.2586 21.9877 11.9964C21.9899 11.7342 21.8891 11.4816 21.707 11.293L12.707 2.293Z" fill="#8E8E93"/>
</svg>
